<?xml version="1.0" encoding="UTF-8"?>
<svg id="_레이어_2" data-name="레이어 2" xmlns="http://www.w3.org/2000/svg" viewBox="0 0 776.86 264.74">
  <g id="_레이어_1-2" data-name="레이어 1">
    <g>
      <polygon points="776.86 83.47 697.4 83.47 697.4 0 583.67 116.18 663.14 116.18 663.14 200 776.86 83.47" fill="#fff"/>
      <g>
        <path d="M0,95h38.87v72.91l14.03-20.24,38.18-52.67h47.84l-57.5,74.06,58.19,93.38h-46.23l-37.26-63.71-17.25,18.4v45.31H0V95Z" fill="#fff"/>
        <path d="M201.59,167.33c-2.53-3.14-6.4-4.71-11.62-4.71-4.75,0-8.39,1.15-10.92,3.45s-3.79,5.67-3.79,10.12h-37.49c0-7.51,2.22-14.34,6.67-20.47,4.45-6.13,10.77-11,18.98-14.61,8.2-3.6,17.67-5.41,28.4-5.41,15.33,0,27.68,3.83,37.03,11.5,9.35,7.67,14.03,18.71,14.03,33.12v50.83c0,7.36.42,13.19,1.26,17.48.84,4.29,2.11,8.28,3.79,11.96v1.84h-37.49c-.77-1.84-1.84-5.21-3.22-10.12-7.82,8.28-17.71,12.42-29.67,12.42-7.82,0-14.99-1.61-21.5-4.83-6.52-3.22-11.65-7.71-15.41-13.46-3.76-5.75-5.63-12.23-5.63-19.43,0-13.19,4.87-23.31,14.6-30.36,9.74-7.05,24.19-10.58,43.36-10.58h12.42v-5.98c0-5.37-1.26-9.62-3.79-12.77ZM197.8,234.04c3.37-1.92,5.9-4.25,7.59-7.01v-20.01h-11.73c-7.36,0-12.73,1.65-16.1,4.94-3.37,3.3-5.06,7.55-5.06,12.77,0,3.53,1.23,6.44,3.68,8.74,2.45,2.3,5.75,3.45,9.89,3.45,4.45,0,8.36-.96,11.73-2.88Z" fill="#fff"/>
        <path d="M268.06,92.93c3.91-3.53,8.93-5.29,15.07-5.29s11.04,1.72,14.72,5.17,5.52,7.93,5.52,13.46-1.84,10.04-5.52,13.57c-3.68,3.53-8.59,5.29-14.72,5.29s-11.16-1.76-15.07-5.29c-3.91-3.53-5.87-8.05-5.87-13.57s1.96-9.81,5.87-13.34ZM264.27,138.01h37.49v124.43h-37.49v-124.43Z" fill="#fff"/>
        <path d="M327.74,138.01h34.96l1.15,14.72c6.29-11.35,15.18-17.02,26.68-17.02,4.6,0,8.05.46,10.35,1.38l-.46,35.88-5.75-.46c-2.15-.15-4.37-.31-6.67-.46-5.98,0-10.85.84-14.61,2.53-3.76,1.69-6.55,4.37-8.39,8.05v79.81h-37.26v-124.43Z" fill="#fff"/>
        <path d="M413.76,166.53c4.6-9.66,11.38-17.21,20.36-22.66,8.97-5.44,19.74-8.17,32.31-8.17s23.34,2.72,32.32,8.17c8.97,5.45,15.79,13,20.47,22.66,4.68,9.66,7.01,20.55,7.01,32.66v2.3c0,12.11-2.34,22.96-7.01,32.54-4.68,9.58-11.5,17.1-20.47,22.54-8.97,5.44-19.67,8.17-32.08,8.17s-23.38-2.72-32.43-8.17c-9.05-5.44-15.87-12.96-20.47-22.54-4.6-9.58-6.9-20.43-6.9-32.54v-2.3c0-12.11,2.3-23,6.9-32.66ZM466.66,234.84c7.82,0,13.49-3.03,17.02-9.08,3.53-6.06,5.29-14.15,5.29-24.27v-2.3c0-9.97-1.76-18.02-5.29-24.15-3.53-6.13-9.28-9.2-17.25-9.2-14.72,0-22.08,11.12-22.08,33.35v2.3c0,22.23,7.44,33.35,22.31,33.35Z" fill="#fff"/>
        <path d="M601.67,219.43c-3.38-1.99-9.81-3.91-19.32-5.75-29.29-6.44-43.93-19.24-43.93-38.41,0-7.05,2.03-13.61,6.09-19.67,4.06-6.06,9.93-10.89,17.59-14.49,7.67-3.6,16.64-5.41,26.91-5.41,10.89,0,20.36,1.73,28.41,5.18,8.05,3.45,14.26,8.24,18.63,14.38,4.37,6.13,6.55,13.19,6.55,21.16h-37.03c0-4.75-1.38-8.43-4.14-11.04-2.76-2.61-6.9-3.91-12.42-3.91-4.6,0-8.28,1.11-11.04,3.33-2.76,2.22-4.14,5.02-4.14,8.39s1.61,6.06,4.83,8.05c3.22,2,8.74,3.76,16.56,5.29,15.03,2.76,26.72,7.05,35.08,12.88,8.36,5.83,12.54,14.72,12.54,26.68,0,7.36-2.22,13.95-6.67,19.78-4.45,5.83-10.74,10.43-18.86,13.8-8.13,3.37-17.56,5.06-28.29,5.06-11.35,0-21.12-2.07-29.33-6.21-8.2-4.14-14.45-9.47-18.75-15.98-4.29-6.52-6.44-13.3-6.44-20.36h34.96c.15,5.67,2.07,9.85,5.75,12.54,3.68,2.68,8.58,4.02,14.72,4.02,5.37,0,9.51-1,12.42-2.99,2.91-1.99,4.37-4.75,4.37-8.28s-1.69-6.06-5.06-8.05Z" fill="#fff"/>
      </g>
    </g>
  </g>
</svg>